PathFileType	4	(X/Y/Z)	c:\Git\powerlifing_model_clean\simulations\HC835B\Session1\HC835B_OGR_0006\marker_experimental.trc
DataRate	CameraRate	NumFrames	NumMarkers	Units	OrigDataRate	OrigDataStartFrame	OrigNumFrames
240.000000	240.000000	4	38	mm	240.000000	55	220
Frame#	Time	RPSI			LPSI			RASI			LASI			RTH1			RTH2			RTH3			RTH4			RSK1			RSK2			RSK3			RSK4			RCAL1			RCAL2			RCAL3			RST			RPT			RTN			RFMB			RSMB			RVMB			RFMH			RSMH			RVMH			RPM			LTH1			LTH2			LTH3			LTH4			LSK1			LSK2			LSK3			LSK4			LCAL1			LCAL2			LCAL3			LFMH			LVMH			
		X1	Y1	Z1	X2	Y2	Z2	X3	Y3	Z3	X4	Y4	Z4	X5	Y5	Z5	X6	Y6	Z6	X7	Y7	Z7	X8	Y8	Z8	X9	Y9	Z9	X10	Y10	Z10	X11	Y11	Z11	X12	Y12	Z12	X13	Y13	Z13	X14	Y14	Z14	X15	Y15	Z15	X16	Y16	Z16	X17	Y17	Z17	X18	Y18	Z18	X19	Y19	Z19	X20	Y20	Z20	X21	Y21	Z21	X22	Y22	Z22	X23	Y23	Z23	X24	Y24	Z24	X25	Y25	Z25	X26	Y26	Z26	X27	Y27	Z27	X28	Y28	Z28	X29	Y29	Z29	X30	Y30	Z30	X31	Y31	Z31	X32	Y32	Z32	X33	Y33	Z33	X34	Y34	Z34	X35	Y35	Z35	X36	Y36	Z36	X37	Y37	Z37	X38	Y38	Z38	

56	0.2291666666666667	454.7837524414064	1123.9453125	-595.5100708007814	346.2665100097657	1116.835205078125	-594.1378173828126	517.7068481445314	1045.084228515625	-797.7517700195315	267.4906005859376	1038.80224609375	-787.6137695312502	567.2498779296876	777.4705810546877	-695.3987426757814	558.1423950195314	761.3411865234376	-753.3688964843751	548.5629882812501	696.1798706054689	-710.6789550781251	528.7382812500001	681.9391479492189	-763.8973388671876	469.2412109375001	304.3049011230469	-515.0172729492189	463.381317138672	266.0668640136719	-563.3137207031251	457.7986145019532	247.4503326416016	-505.6751403808595	441.3041076660157	213.0928649902344	-552.1542358398439	388.8740234375001	123.5414505004883	-382.8330078125001	353.7597961425782	89.32143402099611	-385.2658081054689	417.5253295898439	84.96829986572267	-378.3231506347657	342.7929992675782	93.48602294921876	-454.733367919922	444.1539611816407	85.15343475341798	-437.7979125976564	357.1057434082032	100.5123977661133	-513.5305175781251	362.3642578125001	78.46050262451173	-541.7349853515626	412.6795654296876	96.89531707763675	-552.4037475585939	454.3230285644532	52.13062667846681	-475.7570800781251	360.8865661621094	45.25698852539063	-591.6867675781251	416.7014465332032	51.87229919433595	-604.1572265625001	475.435272216797	35.82064819335938	-549.1724853515626	405.8698730468751	36.95544433593751	-661.0855712890626	185.1939697265625	788.8152465820315	-781.3806152343752	186.4009704589844	802.8156738281252	-840.961364746094	180.5503387451172	721.8657836914064	-834.333190917969	197.5311126708985	734.4132690429689	-892.0592041015627	238.1737518310547	529.0841674804689	-607.7391357421876	232.2862243652344	475.3659057617189	-607.4394531250001	245.0697326660157	494.4322204589845	-563.1928710937501	253.6037139892579	439.9539794921876	-567.0610351562501	320.9400329589844	500.4363403320314	-414.0146789550782	295.7867736816407	488.1116027832032	-375.1109619140626	353.7393188476563	482.6618957519532	-384.1279602050782	341.1946105957032	277.6924438476563	-463.9128723144532	244.2621307373047	305.0754394531251	-411.3080139160157	
57	0.2333333333333333	455.4078369140626	1126.9931640625	-609.4221191406251	346.5800476074219	1120.29052734375	-607.5792846679689	517.1788330078126	1047.400390625	-811.126403808594	267.4919738769532	1041.555419921875	-801.1715087890627	566.4229125976564	780.297302246094	-703.7387695312501	557.2927856445314	763.0859375000001	-761.3597412109376	547.8804931640626	698.8222656250001	-717.4631347656251	527.8234252929689	683.5463256835939	-770.462341308594	470.130828857422	307.8319702148438	-517.7991333007814	464.1674804687501	269.4511718750001	-565.9929199218751	458.7814941406251	251.0543365478516	-508.2566223144532	442.3086547851564	216.4951171875001	-554.6013183593751	390.5760192871095	127.9898071289063	-384.968231201172	355.0054626464844	94.07462310791017	-386.8558959960939	418.6944580078126	89.0723114013672	-379.8699035644532	344.0982666015626	97.24570465087893	-456.311981201172	445.4520874023439	87.97588348388673	-439.2517089843751	358.3552551269532	102.979248046875	-515.1323852539064	363.2803344726563	79.99886322021486	-542.7118530273439	413.7377014160157	97.77039337158206	-554.0017089843751	454.924041748047	53.9496536254883	-476.7189025878907	360.9384460449219	45.74699020385743	-592.0023193359376	417.0186767578126	51.5300979614258	-604.3975219726564	475.7798767089845	35.96687698364259	-549.3876342773439	406.0004882812501	36.9833106994629	-660.9878540039064	185.1299743652344	792.9385986328127	-796.979675292969	186.5840148925782	807.6799926757815	-856.3320922851565	180.9521789550782	726.7809448242189	-850.901550292969	198.0304260253907	740.1934814453126	-908.0569458007815	238.3294525146485	526.1171264648439	-626.7310180664064	232.5567779541016	472.3989868164064	-628.0431518554689	244.6113433837891	490.8093261718751	-582.8483276367189	254.0825653076172	435.3807983398439	-589.0370483398439	320.8186340332032	491.4589233398439	-433.3721313476564	295.5002136230469	477.9218139648439	-395.0603942871095	353.4491882324219	472.5368041992189	-404.0056762695314	340.2908935546876	270.5419311523438	-491.5621032714845	243.3721466064454	296.3744812011719	-437.9617309570314	
58	0.2375	455.9385986328126	1130.150146484375	-623.3877563476564	346.8850097656251	1123.751098632813	-621.0275878906251	516.4660644531251	1050.001831054688	-824.5759887695315	267.5941772460938	1044.302490234375	-814.543884277344	565.6527099609376	783.3814697265627	-712.3377075195314	556.3731689453126	765.1536865234376	-769.6838378906252	547.1364746093751	701.6473388671876	-724.6948242187501	526.8684082031251	685.4892578125001	-777.2468261718752	470.9909057617189	311.7266845703126	-520.7887573242189	465.049041748047	273.1482238769532	-568.8223876953126	459.7699279785157	254.7622680664063	-511.1744079589845	443.4021606445314	220.0180664062501	-557.2348632812501	392.2330627441407	132.7255401611328	-387.4458923339845	356.2171325683594	99.29856109619143	-388.7579040527345	419.8516235351564	93.62576293945314	-381.6555480957032	345.5084228515626	101.2405853271485	-458.1672973632814	446.7607727050782	91.05612945556642	-440.9883422851564	359.8473815917969	105.3970336914063	-516.7805786132814	364.2386779785157	81.73661041259767	-544.1345214843751	414.8959350585939	98.68306732177737	-555.8937988281251	455.6204833984376	55.91949844360353	-477.892791748047	361.2494812011719	45.6778793334961	-591.9185791015626	417.2113647460939	51.1640968322754	-605.1376953125001	475.9685668945314	35.96717071533204	-549.6807861328126	406.0091247558595	36.99339675903321	-661.0139160156251	184.9634552001953	797.1567993164065	-812.6176757812502	186.7911987304688	812.670837402344	-871.7368774414065	181.3107604980469	731.5745239257814	-867.1585693359377	198.9192199707032	745.4525756835939	-924.4498291015627	238.5407257080079	522.9006958007814	-645.7039184570314	232.9066772460938	469.2756958007814	-648.6405639648439	244.6963806152344	486.272674560547	-602.7303466796876	254.3605041503907	431.3077087402345	-610.7393798828126	320.7816467285157	482.2818298339845	-452.8318176269532	295.1365356445313	467.414764404297	-415.3067321777345	353.2953796386719	461.8136596679689	-424.1333312988282	339.3058776855469	263.3772888183594	-520.0783081054689	242.5945281982422	287.7804260253907	-464.8428649902345	
59	0.2416666666666667	456.3806457519532	1133.259155273438	-637.2976684570314	347.2055969238282	1127.4521484375	-634.1896362304689	515.6515502929689	1052.693603515625	-837.987487792969	267.5319213867188	1046.914916992188	-828.4353637695315	564.9589843750001	786.7191162109377	-721.2284545898439	555.4154052734376	767.4678344726564	-778.2528076171877	546.5369873046876	704.7430419921876	-732.1861572265626	525.9301757812501	687.7241821289064	-784.3694458007815	471.9261474609376	315.7210693359376	-523.9158935546876	466.0347595214845	276.8388366699219	-571.9701538085939	460.7851562500001	258.8516235351563	-513.8829345703126	444.726531982422	223.8428649902344	-560.0945434570314	393.8030090332032	137.7877044677735	-390.2849731445314	357.3814086914063	104.6879348754883	-390.928924560547	420.9876708984376	98.41465759277347	-383.7895812988282	346.9129638671876	105.1779708862305	-460.3934020996095	447.9207458496095	94.29084777832033	-442.9239196777345	361.1994934082032	108.1471939086914	-519.1189575195314	365.1286621093751	83.56644439697267	-545.6716918945314	416.0610961914064	99.65727996826175	-557.7426757812501	456.2063598632814	58.0911331176758	-479.1407775878907	361.4242858886719	45.95609283447266	-592.0381469726564	417.4537658691407	50.76819992065431	-605.7852783203126	476.3079223632814	36.26788711547852	-549.9468994140626	406.0046997070314	37.00975799560548	-661.0316162109376	184.7737426757813	801.5949707031252	-828.3259277343752	186.9280395507813	817.4455566406252	-887.2061157226565	181.6292419433594	736.3438110351564	-883.5364379882815	199.6339721679688	751.0136718750001	-940.437683105469	238.7954711914063	519.5148925781251	-664.6007690429689	233.3002929687501	466.1236572265626	-669.3026733398439	244.7660522460938	481.4284667968751	-622.7935180664064	255.1095123291016	426.6020812988282	-632.8140258789064	320.5935363769532	472.6581420898439	-472.6705017089845	294.6816711425782	456.5745849609376	-435.7361145019532	352.8618469238282	451.2247009277345	-444.4113769531251	339.6126403808594	256.3334960937501	-547.2276000976564	241.8698883056641	278.9887695312501	-492.1838989257814	
